<?xml version="1.0" encoding="UTF-8" standalone="no"?><svg xmlns="http://www.w3.org/2000/svg" xmlns:xlink="http://www.w3.org/1999/xlink"><symbol viewBox="0 0 18 18" id="icon_close"><title>icon_close</title><path d="M10.414 9l7.071-7.071L16.071.515 9 7.585 1.929.516.515 1.929 7.585 9l-7.07 7.071 1.414 1.414L9 10.415l7.071 7.07 1.414-1.414L10.415 9z" fill="#FFF" fill-rule="evenodd"/></symbol><symbol viewBox="0 0 40 40" id="icon_fb"><title>Facebook icon</title><g fill="none" fill-rule="evenodd"><circle fill="#C19534" cx="20" cy="20" r="20"/><path d="M21.227 17.444V14.906c0-.956.201-1.534 1.452-1.534 1.16 0 2.223.008 2.223.008l.08-3.246S23.944 10 22.538 10c-3.477 0-4.987 2.143-4.987 4.475v2.97H15v3.476h2.55v9.659h3.677v-9.66h3.609l.166-3.476h-3.775z" fill="#FFF"/></g></symbol><symbol viewBox="0 0 22 14" id="icon_menu"><title>icon_menu</title><path d="M0 12h22v2H0v-2zm0-6h22v2H0V6zm0-6h22v2H0V0z" fill="#FFF" fill-rule="evenodd"/></symbol><symbol viewBox="0 0 40 40" id="icon_tw"><title>Twitter icon</title><g fill="none" fill-rule="evenodd"><circle fill="#C19534" cx="20" cy="20" r="20"/><path d="M29 14.732a7.336 7.336 0 0 1-2.12.581 3.702 3.702 0 0 0 1.622-2.043 7.394 7.394 0 0 1-2.342.896A3.692 3.692 0 0 0 23.462 13a3.693 3.693 0 0 0-3.596 4.533 10.487 10.487 0 0 1-7.612-3.858 3.684 3.684 0 0 0-.5 1.858c0 1.28.65 2.41 1.641 3.073a3.689 3.689 0 0 1-1.672-.462v.048a3.693 3.693 0 0 0 2.962 3.62 3.725 3.725 0 0 1-1.668.063 3.693 3.693 0 0 0 3.45 2.563A7.403 7.403 0 0 1 11 25.966a10.437 10.437 0 0 0 5.66 1.66c6.793 0 10.51-5.627 10.51-10.507a9.8 9.8 0 0 0-.014-.477A7.507 7.507 0 0 0 29 14.732" fill="#FFF"/></g></symbol><symbol viewBox="0 0 180 96" id="logo"><title>Design Archives</title><desc>WordCamp Tokyo 2015</desc><path d="M164.166 64.124h.543c.23.79.526 1.587.888 2.393a8.487 8.487 0 0 0 1.455 2.22 7.172 7.172 0 0 0 2.244 1.652c.888.427 1.957.64 3.206.64 1.053 0 1.99-.32 2.812-.96.822-.642 1.233-1.686 1.233-3.133 0-1.25-.32-2.13-.962-2.64a7.53 7.53 0 0 0-2.244-1.208l-3.848-1.331a20.79 20.79 0 0 1-1.603-.617 5.811 5.811 0 0 1-1.603-1.036c-.493-.444-.896-1.011-1.208-1.702-.313-.69-.469-1.578-.469-2.663 0-.921.181-1.776.543-2.565.362-.79.855-1.48 1.48-2.072a6.616 6.616 0 0 1 2.244-1.381 7.97 7.97 0 0 1 2.836-.493c.724 0 1.307.057 1.751.172.444.115.83.23 1.16.346.328.115.624.23.887.345.263.115.576.173.938.173.361 0 .624-.132.789-.395h.542v5.623h-.542a21.203 21.203 0 0 0-.79-2.096 8.379 8.379 0 0 0-1.06-1.8 4.301 4.301 0 0 0-1.53-1.234c-.607-.296-1.323-.444-2.145-.444-1.578 0-2.803.354-3.675 1.06-.871.708-1.307 1.653-1.307 2.837 0 1.052.37 1.85 1.11 2.392.74.543 1.833 1.044 3.28 1.505l3.601 1.184c1.546.526 2.812 1.25 3.798 2.17.987.92 1.48 2.137 1.48 3.65 0 .888-.173 1.76-.518 2.614a6.343 6.343 0 0 1-1.529 2.245c-.674.641-1.496 1.159-2.466 1.554-.97.394-2.08.591-3.33.591-.723 0-1.39-.074-1.998-.221a23.82 23.82 0 0 1-1.677-.47c-.51-.164-.978-.32-1.405-.468a3.64 3.64 0 0 0-1.184-.222c-.362 0-.625.074-.79.222a2.063 2.063 0 0 0-.394.469h-.543v-6.906zm-18.21-5.327c0 .329-.008.666-.024 1.011a30.851 30.851 0 0 0 .173 4.71c.131 1.185.419 2.253.863 3.207a5.976 5.976 0 0 0 1.973 2.368c.871.625 2.03.937 3.477.937s2.64-.214 3.577-.641c.937-.428 1.677-.946 2.22-1.554.542-.608.945-1.225 1.208-1.85s.46-1.134.592-1.529l.74.148c-.1.362-.288.88-.568 1.554-.28.674-.723 1.348-1.332 2.022-.608.674-1.43 1.266-2.466 1.776-1.036.51-2.376.764-4.02.764-1.644 0-3.165-.263-4.563-.789-1.397-.526-2.606-1.282-3.625-2.269a10.253 10.253 0 0 1-2.368-3.527c-.559-1.364-.838-2.885-.838-4.562 0-1.447.287-2.853.863-4.218a11.92 11.92 0 0 1 2.368-3.625 11.863 11.863 0 0 1 3.526-2.54 9.977 9.977 0 0 1 4.341-.962c.92 0 1.907.164 2.96.493a8.715 8.715 0 0 1 2.935 1.603c.904.74 1.66 1.718 2.269 2.935.608 1.217.912 2.73.912 4.538h-15.192zm10.162-.69c.066-.461.098-.888.098-1.283V55.59c0-1.118-.106-2.039-.32-2.763-.214-.723-.51-1.298-.888-1.726a3.137 3.137 0 0 0-1.381-.912 5.504 5.504 0 0 0-1.751-.272c-1.118 0-2.039.222-2.763.666a4.905 4.905 0 0 0-1.726 1.8c-.427.757-.748 1.628-.962 2.615a20.528 20.528 0 0 0-.42 3.107h10.113zm-37.99-8.238h11.937v.69h-4.044l6.363 15.489 6.61-15.489h-4.045v-.69h7.497v.69h-2.663l-9.323 22.099-8.977-22.099h-3.355v-.69zm-11.304 20.47h3.799V50.56h-3.799v-.69h8.04v20.47h3.799v.69h-11.839v-.69zm-30.697-4.735c-.099.362-.288.88-.567 1.554-.28.674-.724 1.348-1.332 2.022-.608.674-1.43 1.266-2.466 1.776-1.036.51-2.376.764-4.02.764-1.25 0-2.549-.197-3.897-.591a10.989 10.989 0 0 1-3.7-1.9c-1.118-.87-2.03-2.014-2.737-3.428-.707-1.414-1.06-3.157-1.06-5.228 0-1.612.303-3.108.912-4.489a11.5 11.5 0 0 1 2.466-3.6 11.252 11.252 0 0 1 3.65-2.393 11.608 11.608 0 0 1 4.464-.863c.888 0 1.8.107 2.738.32a9.24 9.24 0 0 1 2.565.987 6.064 6.064 0 0 1 1.923 1.726c.51.707.765 1.57.765 2.59 0 .69-.222 1.258-.666 1.702-.444.444-1.077.666-1.899.666a3.636 3.636 0 0 1-1.603-.37c-.51-.247-.765-.666-.765-1.258 0-.46.115-1.02.346-1.677.23-.658.345-1.2.345-1.628 0-.756-.378-1.34-1.135-1.751-.756-.411-1.627-.617-2.614-.617-.723 0-1.471.09-2.244.272-.773.18-1.48.633-2.121 1.356-.641.723-1.168 1.809-1.579 3.256-.41 1.446-.616 3.42-.616 5.919 0 1.414.09 2.746.271 3.995.18 1.25.51 2.343.987 3.28.476.938 1.134 1.677 1.973 2.22.838.543 1.932.814 3.28.814 1.447 0 2.639-.214 3.576-.641.937-.428 1.677-.946 2.22-1.554.542-.608.945-1.225 1.208-1.85s.46-1.134.592-1.529l.74.148zM17.505 35.43L4.34 70.34H0v.69h10.605v-.69H5.13l5.18-13.713h11.443l5.18 13.712h-5.476v.69h27.286v-.69H44.45V59.044c0-1.382.173-2.606.518-3.675.345-1.069.773-1.981 1.283-2.738.51-.756 1.06-1.332 1.652-1.726.592-.395 1.151-.592 1.677-.592 1.151 0 1.727.526 1.727 1.578 0 .428-.033.757-.099.987-.066.23-.14.436-.222.616a7.53 7.53 0 0 0-.222.543c-.066.18-.099.42-.099.715 0 .921.724 1.381 2.17 1.381.658 0 1.234-.18 1.727-.542.493-.362.74-1.085.74-2.17 0-.494-.082-.987-.247-1.48a3.446 3.446 0 0 0-.789-1.308c-.362-.378-.822-.69-1.381-.937-.559-.246-1.217-.37-1.973-.37-1.052 0-1.948.198-2.688.592-.74.395-1.373.88-1.9 1.455a7.323 7.323 0 0 0-1.233 1.8c-.295.626-.51 1.185-.64 1.678h-.1v-4.982h-7.94v.69h3.797v19.78H32.26L18.97 35.36c.485-.036.944-.082 1.377-.14.74-.099 1.463-.247 2.17-.444a15.273 15.273 0 0 0 2.245-.838 17.045 17.045 0 0 0 3.97-2.343 15.771 15.771 0 0 0 3.231-3.453c.921-1.332 1.645-2.861 2.17-4.588.527-1.726.79-3.674.79-5.845 0-1.874-.222-3.666-.666-5.376a16.081 16.081 0 0 0-2.072-4.736c-.937-1.447-2.137-2.72-3.6-3.823-1.464-1.101-3.198-1.98-5.204-2.638-.69-.23-1.34-.42-1.949-.568A16.684 16.684 0 0 0 19.51.222a27.706 27.706 0 0 0-2.17-.173A62.754 62.754 0 0 0 14.698 0c-.46 0-.92.008-1.38.025-.461.016-.922.024-1.382.024a38.84 38.84 0 0 1-2.762.099H0v.69h5.475v33.74H0v.69h8.385a58.126 58.126 0 0 1 3.206.099 57.195 57.195 0 0 0 3.256.099c.982 0 1.868-.012 2.658-.036zm-1.474 6.152l-5.426 14.354h10.852l-5.426-14.354zm100.366-26.784h3.12v19.78h-3.797v.69h11.838v-.69h-3.798V23.43c0-1.315.205-2.532.616-3.65.411-1.118.979-2.088 1.702-2.91a7.906 7.906 0 0 1 2.516-1.924 6.836 6.836 0 0 1 3.009-.69c1.282 0 2.228.41 2.836 1.232.608.823.912 1.875.912 3.157v15.933h-3.798v.69h11.839v-.69h-3.798V20.174c0-2.301-.683-3.979-2.048-5.03-1.364-1.053-3.132-1.58-5.302-1.58-1.414 0-2.614.223-3.6.667-.987.444-1.81.978-2.467 1.603-.658.625-1.176 1.266-1.554 1.923-.378.658-.666 1.2-.863 1.628h-.099v-5.278h-7.67a1.321 1.321 0 0 0-.319-.222 4.023 4.023 0 0 0-1.825-.419c-1.052 0-1.932.263-2.639.79-.707.525-1.241 1.1-1.603 1.726-.493-.494-1.274-1.036-2.343-1.628-1.069-.592-2.343-.888-3.823-.888-.953 0-1.948.165-2.984.493a9.463 9.463 0 0 0-2.836 1.455 8.257 8.257 0 0 0-2.121 2.343c-.56.921-.839 1.957-.839 3.108 0 2.236.954 4.012 2.861 5.327-.427.198-.912.444-1.455.74a6.706 6.706 0 0 0-2.738 2.836c-.328.642-.493 1.406-.493 2.294 0 1.71.518 2.919 1.554 3.626 1.036.707 2.639 1.06 4.81 1.159-.691.263-1.382.592-2.072.986a8.715 8.715 0 0 0-1.85 1.406 6.93 6.93 0 0 0-1.332 1.874c-.345.708-.518 1.489-.518 2.343 0 .888.222 1.694.666 2.417.444.724 1.06 1.34 1.85 1.85.789.51 1.718.913 2.787 1.209 1.068.296 2.244.444 3.527.444a12.34 12.34 0 0 0 4.143-.716 11.405 11.405 0 0 0 3.576-2.022 10.243 10.243 0 0 0 2.491-3.083c.625-1.184.937-2.499.937-3.946 0-2.368-.682-4.102-2.047-5.204-1.364-1.102-3.198-1.652-5.5-1.652h-7.793c-.428 0-.839-.033-1.233-.099a3.496 3.496 0 0 1-1.06-.345 1.94 1.94 0 0 1-.765-.74c-.198-.329-.296-.74-.296-1.233 0-.526.115-.995.345-1.406a3.88 3.88 0 0 1 .863-1.06 5.18 5.18 0 0 1 1.135-.74c.41-.198.797-.379 1.159-.543.46.23 1.118.501 1.973.814.855.312 1.858.468 3.009.468 1.118 0 2.211-.172 3.28-.518 1.069-.345 2.006-.83 2.812-1.455a7.85 7.85 0 0 0 1.948-2.17c.493-.822.74-1.726.74-2.713 0-1.184-.23-2.17-.69-2.96-.461-.789-.84-1.348-1.135-1.677.263-.361.567-.682.912-.962.346-.279.683-.419 1.011-.419.33 0 .576.132.74.395.165.263.321.542.469.838.148.296.32.576.518.839.197.263.526.395.986.395.395 0 .781-.148 1.16-.444.378-.296.567-.74.567-1.332 0-.34-.038-.636-.114-.888zm-8.173 5.92c0-.757-.05-1.522-.148-2.295a6.763 6.763 0 0 0-.617-2.12 3.711 3.711 0 0 0-1.43-1.554c-.641-.395-1.504-.592-2.59-.592-1.677 0-2.943.51-3.798 1.529-.855 1.02-1.282 2.696-1.282 5.031 0 .987.074 1.874.222 2.664.148.789.419 1.471.814 2.047.394.575.92 1.01 1.578 1.307.658.296 1.496.444 2.516.444 1.71 0 2.926-.535 3.65-1.603.723-1.069 1.085-2.689 1.085-4.859zm-7.498 16.03c-.427.263-.863.534-1.307.814-.444.28-.838.633-1.184 1.06a5.32 5.32 0 0 0-.838 1.505c-.214.575-.32 1.29-.32 2.146 0 1.184.205 2.162.616 2.935.41.772.937 1.397 1.578 1.874a5.996 5.996 0 0 0 2.146 1.011c.79.197 1.562.296 2.318.296 1.184 0 2.261-.18 3.231-.542.97-.362 1.809-.847 2.516-1.456a6.403 6.403 0 0 0 1.628-2.096c.378-.79.567-1.611.567-2.466 0-1.842-.502-3.149-1.505-3.922-1.003-.772-2.375-1.159-4.118-1.159h-5.328zm-23.16-2.17v.69h3.798V70.34l-3.798-.098v.789h11.838v-.69h-3.798V59.191c0-1.316.205-2.532.616-3.65.411-1.119.979-2.089 1.702-2.91a7.906 7.906 0 0 1 2.516-1.925 6.836 6.836 0 0 1 3.009-.69c1.282 0 2.228.41 2.836 1.233.608.822.913 1.874.913 3.157v15.932h-3.799v.69h11.839v-.69h-3.798V55.936c0-2.302-.683-3.979-2.047-5.031-1.365-1.053-3.133-1.579-5.303-1.579-1.348 0-2.507.206-3.478.617-.97.411-1.792.904-2.466 1.48-.674.575-1.208 1.184-1.603 1.825s-.674 1.175-.839 1.603h-.098V35.268h5.948v-.69h-3.798v-20.47h-8.04v.69h3.798v19.78h-5.948zM85.335 0l2.563 1.48v2.96l-2.563 1.48-2.564-1.48V1.48L85.335 0zM61.368 28.363h.543c.23.789.526 1.586.888 2.392a8.487 8.487 0 0 0 1.455 2.22 7.172 7.172 0 0 0 2.244 1.652c.888.428 1.957.641 3.206.641 1.053 0 1.99-.32 2.812-.962.822-.64 1.233-1.685 1.233-3.132 0-1.25-.32-2.129-.962-2.639a7.53 7.53 0 0 0-2.244-1.208l-3.848-1.332a20.79 20.79 0 0 1-1.603-.617 5.811 5.811 0 0 1-1.603-1.035c-.493-.444-.896-1.012-1.208-1.702-.313-.69-.469-1.579-.469-2.664 0-.92.18-1.776.543-2.565.361-.789.855-1.48 1.48-2.072a6.616 6.616 0 0 1 2.244-1.38 7.97 7.97 0 0 1 2.836-.494c.724 0 1.307.058 1.751.173.444.115.83.23 1.16.345.328.115.624.23.887.345.263.115.576.173.937.173.362 0 .625-.132.79-.395h.542v5.624h-.542a21.204 21.204 0 0 0-.79-2.097 8.379 8.379 0 0 0-1.06-1.8 4.301 4.301 0 0 0-1.53-1.233c-.608-.296-1.323-.444-2.145-.444-1.578 0-2.803.353-3.675 1.06-.871.707-1.307 1.653-1.307 2.836 0 1.053.37 1.85 1.11 2.393.74.542 1.833 1.044 3.28 1.504l3.601 1.184c1.546.526 2.812 1.25 3.798 2.17.987.921 1.48 2.138 1.48 3.65 0 .888-.173 1.76-.518 2.615a6.343 6.343 0 0 1-1.53 2.244c-.673.641-1.495 1.16-2.465 1.554-.97.395-2.08.592-3.33.592-.723 0-1.39-.074-1.998-.222a23.82 23.82 0 0 1-1.677-.469c-.51-.164-.978-.32-1.406-.468a3.64 3.64 0 0 0-1.183-.222c-.362 0-.625.074-.79.222a2.063 2.063 0 0 0-.394.468h-.543v-6.905zm-18.446-5.328c0 .33-.008.666-.025 1.012a30.851 30.851 0 0 0 .173 4.71c.132 1.184.42 2.253.863 3.206a5.976 5.976 0 0 0 1.973 2.368c.872.625 2.031.937 3.478.937s2.639-.213 3.576-.64c.937-.428 1.677-.946 2.22-1.555.542-.608.945-1.225 1.208-1.85.263-.624.46-1.134.592-1.529l.74.148c-.099.362-.288.88-.567 1.554-.28.674-.724 1.348-1.332 2.023-.608.674-1.43 1.266-2.466 1.775-1.036.51-2.376.765-4.02.765-1.645 0-3.166-.263-4.563-.79-1.398-.525-2.606-1.282-3.626-2.268a10.253 10.253 0 0 1-2.367-3.527c-.56-1.365-.839-2.886-.839-4.563 0-1.447.288-2.853.863-4.217a11.92 11.92 0 0 1 2.368-3.626 11.863 11.863 0 0 1 3.527-2.54 9.977 9.977 0 0 1 4.34-.962c.921 0 1.908.165 2.96.493a8.715 8.715 0 0 1 2.935 1.603c.904.74 1.66 1.719 2.27 2.935.607 1.217.912 2.73.912 4.538H42.922zm10.161-.69c.066-.46.099-.888.099-1.283V19.83c0-1.118-.107-2.039-.32-2.762-.214-.724-.51-1.299-.888-1.727a3.137 3.137 0 0 0-1.382-.912 5.504 5.504 0 0 0-1.75-.271c-1.119 0-2.04.222-2.763.666a4.906 4.906 0 0 0-1.726 1.8c-.428.756-.749 1.628-.962 2.614a20.528 20.528 0 0 0-.42 3.108h10.112zM10.408 34.578a27.26 27.26 0 0 0 1.948.148c.74.033 1.554.05 2.442.05a32.02 32.02 0 0 0 3.33-.174 12.628 12.628 0 0 0 3.156-.74c1.003-.378 1.94-.92 2.812-1.627.871-.707 1.652-1.636 2.343-2.787 1.052-1.776 1.784-3.593 2.195-5.45.411-1.859.617-3.89.617-6.093 0-2.597-.247-4.957-.74-7.078-.494-2.12-1.308-3.93-2.442-5.426-1.135-1.496-2.639-2.655-4.513-3.477C19.68 1.102 17.363.69 14.6.69c-.823 0-1.57.016-2.245.049-.674.033-1.323.066-1.948.099v33.739zM0 85.982h1.103l2.565 7.477 2.462-7.503h.834l2.462 7.503 2.565-7.477h1.065l-3.207 9.041H8.99L6.528 87.74l-2.475 7.284h-.847L0 85.982zm17.47 8.76a4.448 4.448 0 0 1-1.443-1.008 4.478 4.478 0 0 1-.93-1.475 4.818 4.818 0 0 1-.327-1.763c0-.641.111-1.231.334-1.795a4.548 4.548 0 0 1 .936-1.482c.402-.423.885-.76 1.45-1.013a4.537 4.537 0 0 1 1.872-.378 4.56 4.56 0 0 1 1.866.372c.56.248 1.04.583 1.442 1.006.402.424.712.915.93 1.475.218.56.327 1.148.327 1.764 0 .641-.11 1.23-.333 1.795a4.548 4.548 0 0 1-.936 1.482c-.402.423-.885.76-1.45 1.013a4.537 4.537 0 0 1-1.872.378 4.56 4.56 0 0 1-1.866-.372zm3.309-.854a3.34 3.34 0 0 0 1.11-.788c.307-.334.548-.723.724-1.168.175-.444.263-.923.263-1.436v-.026c0-.513-.088-.994-.263-1.442a3.574 3.574 0 0 0-.738-1.174 3.568 3.568 0 0 0-1.122-.795 3.378 3.378 0 0 0-1.417-.295c-.513 0-.985.096-1.417.289a3.34 3.34 0 0 0-1.11.788c-.307.334-.549.723-.724 1.167a3.881 3.881 0 0 0-.263 1.437v.025c0 .513.088.994.263 1.443.175.45.42.84.737 1.174.317.333.69.598 1.122.795.432.196.905.295 1.418.295.513 0 .985-.096 1.417-.289zm6.03-7.906h3.86c.556 0 1.05.079 1.481.237.432.158.79.378 1.071.66.223.223.394.484.513.783.12.299.18.628.18.987 0 .402-.06.738-.18 1.033-.12.295-.288.551-.506.77a2.735 2.735 0 0 1-.776.538c-.3.14-.624.241-.975.301l2.757 3.668H32.99l-2.603-3.488h-2.565v3.488h-1.013v-8.977zm3.77 4.578c.334 0 .642-.043.924-.128.282-.086.526-.207.73-.366a1.69 1.69 0 0 0 .482-.577c.115-.226.173-.485.173-.776v-.025c0-.556-.201-.99-.603-1.302-.402-.312-.966-.468-1.693-.468h-2.77v3.642h2.757zm6.242-4.578h3.117c.7 0 1.344.113 1.93.34.585.226 1.09.54 1.513.942.423.402.75.874.981 1.417.231.543.346 1.131.346 1.764 0 .658-.115 1.248-.346 1.795a4.181 4.181 0 0 1-.981 1.424 4.643 4.643 0 0 1-1.513.949 5.22 5.22 0 0 1-1.93.346H36.82v-8.977zm1.013.936v7.105h2.104c.564 0 1.077-.09 1.539-.27.461-.179.852-.427 1.173-.743.32-.317.569-.69.744-1.122.175-.432.263-.896.263-1.392v-.026c0-.495-.088-.96-.263-1.391a3.37 3.37 0 0 0-.744-1.129 3.429 3.429 0 0 0-1.173-.756 4.127 4.127 0 0 0-1.54-.276h-2.103zM49.9 94.754a4.435 4.435 0 0 1-1.424-.981 4.487 4.487 0 0 1-.943-1.469 4.807 4.807 0 0 1-.34-1.808c0-.658.114-1.257.34-1.821.227-.564.541-1.058.943-1.481.402-.424.88-.757 1.436-1a4.485 4.485 0 0 1 1.821-.366c.41 0 .78.034 1.11.102a4.6 4.6 0 0 1 .917.289c.282.124.543.274.782.449.24.175.47.37.693.583l-.693.744a5.67 5.67 0 0 0-1.237-.885c-.44-.23-.969-.346-1.584-.346a3.356 3.356 0 0 0-2.482 1.064 3.63 3.63 0 0 0-.731 1.174c-.175.449-.263.93-.263 1.443 0 .547.088 1.032.263 1.481.175.449.419.84.731 1.174.312.333.68.596 1.103.788.423.193.883.289 1.379.289.615 0 1.145-.113 1.59-.34.445-.227.88-.545 1.308-.956l.667.655c-.23.239-.472.455-.725.647a4.494 4.494 0 0 1-1.75.815 4.971 4.971 0 0 1-1.116.115 4.43 4.43 0 0 1-1.795-.36zm11.217-8.836h.95l4.09 9.041h-1.09l-1.051-2.372h-4.887l-1.064 2.372h-1.039l4.091-9.041zm2.501 5.745l-2.039-4.566-2.052 4.566h4.091zm5.05-5.681h1.025l3.27 4.899 3.27-4.9h1.027v8.978h-1.013v-7.272l-3.27 4.81h-.052l-3.27-4.797v7.26h-.988v-8.978zm11.871 0h3.36c.505 0 .964.066 1.379.198.415.133.77.321 1.064.565.295.243.522.54.68.891.158.35.237.748.237 1.193 0 .513-.094.938-.282 1.302a2.733 2.733 0 0 1-.763.917c-.32.247-.695.433-1.122.557-.428.124-.88.186-1.36.186h-2.18v3.168h-1.013v-8.977zm3.232 4.886a3.39 3.39 0 0 0 1.007-.141c.303-.094.564-.229.782-.404a1.79 1.79 0 0 0 .5-.622c.116-.24.173-.509.173-.808v-.026c0-.64-.22-1.126-.66-1.455-.44-.33-1.024-.494-1.75-.494h-2.27v3.95h2.218zm13.035-3.95H93.79v-.936h7.054v.936H97.83v8.041h-1.026v-8.041zm8.364 7.823a4.448 4.448 0 0 1-1.443-1.007 4.478 4.478 0 0 1-.93-1.475 4.818 4.818 0 0 1-.326-1.763c0-.641.11-1.231.333-1.795a4.548 4.548 0 0 1 .936-1.482c.402-.423.885-.76 1.45-1.013a4.537 4.537 0 0 1 1.872-.378 4.56 4.56 0 0 1 1.866.372c.56.248 1.04.583 1.443 1.006.401.424.711.915.93 1.475.217.56.326 1.148.326 1.764 0 .641-.11 1.23-.333 1.795a4.548 4.548 0 0 1-.936 1.482c-.402.423-.885.76-1.45 1.013a4.537 4.537 0 0 1-1.872.378 4.56 4.56 0 0 1-1.866-.372zm3.309-.853a3.34 3.34 0 0 0 1.11-.788c.307-.334.549-.723.724-1.168.175-.444.263-.923.263-1.436v-.026c0-.513-.088-.994-.263-1.442a3.574 3.574 0 0 0-.738-1.174 3.568 3.568 0 0 0-1.122-.795 3.378 3.378 0 0 0-1.417-.295c-.513 0-.985.096-1.417.289a3.34 3.34 0 0 0-1.11.788c-.307.334-.549.723-.724 1.167a3.881 3.881 0 0 0-.263 1.437v.025c0 .513.088.994.263 1.443.175.45.421.84.738 1.174.316.333.69.598 1.122.795.431.196.904.295 1.417.295s.985-.096 1.417-.289zm6.03-7.906h1.013v5.36l5.156-5.36h1.308l-3.847 3.924 4.014 5.053h-1.27l-3.45-4.348-1.91 1.937v2.411h-1.014v-8.977zm13.282 5.425l-3.732-5.425h1.23l3.028 4.488 3.052-4.488h1.18l-3.732 5.412v3.565h-1.026v-3.552zm8.646 3.334a4.448 4.448 0 0 1-1.443-1.007 4.478 4.478 0 0 1-.93-1.475 4.818 4.818 0 0 1-.326-1.763c0-.641.11-1.231.333-1.795a4.548 4.548 0 0 1 .936-1.482c.402-.423.885-.76 1.45-1.013a4.537 4.537 0 0 1 1.872-.378 4.56 4.56 0 0 1 1.866.372c.56.248 1.04.583 1.443 1.006.401.424.711.915.93 1.475.217.56.326 1.148.326 1.764 0 .641-.11 1.23-.333 1.795a4.548 4.548 0 0 1-.936 1.482c-.402.423-.885.76-1.45 1.013a4.537 4.537 0 0 1-1.872.378 4.56 4.56 0 0 1-1.866-.372zm3.309-.853a3.34 3.34 0 0 0 1.11-.788c.307-.334.549-.723.724-1.168.175-.444.263-.923.263-1.436v-.026c0-.513-.088-.994-.263-1.442a3.574 3.574 0 0 0-.738-1.174 3.568 3.568 0 0 0-1.122-.795 3.378 3.378 0 0 0-1.417-.295c-.513 0-.985.096-1.417.289a3.34 3.34 0 0 0-1.11.788c-.307.334-.549.723-.724 1.167a3.881 3.881 0 0 0-.263 1.437v.025c0 .513.088.994.263 1.443.175.45.421.84.737 1.174.317.333.69.598 1.123.795.431.196.904.295 1.417.295s.985-.096 1.417-.289zm8.977.289l3.257-2.873c.342-.308.633-.586.872-.834.24-.248.432-.48.578-.699.145-.218.252-.431.32-.64.069-.21.103-.426.103-.648a1.656 1.656 0 0 0-.539-1.25 1.704 1.704 0 0 0-.577-.347 2.002 2.002 0 0 0-.693-.122c-.513 0-.953.13-1.32.391-.368.261-.731.644-1.09 1.148l-.744-.539c.205-.299.414-.568.628-.808.214-.239.447-.44.699-.602a3.03 3.03 0 0 1 .846-.372 4.008 4.008 0 0 1 1.058-.129c.402 0 .774.065 1.116.193.342.128.637.305.885.532a2.388 2.388 0 0 1 .782 1.815c0 .35-.044.652-.134.93-.09.277-.227.551-.41.82-.184.27-.42.545-.706.828-.286.282-.626.594-1.02.936l-2.398 2.129h4.758v.923h-6.271v-.782zm10.814.57a3.625 3.625 0 0 1-1.193-1 4.64 4.64 0 0 1-.757-1.468 5.894 5.894 0 0 1-.263-1.783c0-.65.09-1.244.27-1.808.18-.565.436-1.058.77-1.482a3.765 3.765 0 0 1 1.198-1.006c.466-.248.99-.372 1.571-.372.573 0 1.093.122 1.559.365.466.244.863.577 1.192 1 .33.424.582.915.757 1.476.175.56.263 1.152.263 1.776 0 .658-.09 1.254-.27 1.814a4.73 4.73 0 0 1-.763 1.475c-.329.424-.728.76-1.199 1.007-.47.248-.991.372-1.564.372a3.339 3.339 0 0 1-1.571-.366zm2.731-.859c.338-.2.624-.47.86-.808.235-.337.414-.73.538-1.18.124-.448.186-.917.186-1.404v-.026c0-.487-.064-.955-.192-1.404a3.936 3.936 0 0 0-.552-1.186 2.873 2.873 0 0 0-.865-.821 2.143 2.143 0 0 0-1.135-.308c-.42 0-.798.1-1.135.302-.338.2-.624.47-.86.808a3.954 3.954 0 0 0-.545 1.173 5.066 5.066 0 0 0-.192 1.41v.026c0 .488.064.956.192 1.405.129.449.312.844.552 1.186.24.342.53.616.872.82.342.206.722.309 1.141.309.42 0 .798-.1 1.135-.302zm6.402-6.919l-1.692.526-.244-.82 2.193-.757h.744v9.041h-1v-7.99zm5.146 7.74a5.396 5.396 0 0 1-1.43-1.02l.667-.73c.393.384.801.686 1.224.904.424.218.866.327 1.328.327.316 0 .609-.052.878-.154.27-.103.498-.242.686-.417a1.88 1.88 0 0 0 .443-.629c.107-.243.16-.506.16-.788 0-.308-.055-.565-.167-.795a1.794 1.794 0 0 0-.461-.597 2.08 2.08 0 0 0-.706-.384 2.865 2.865 0 0 0-.897-.135c-.385 0-.73.049-1.033.147-.303.099-.588.22-.853.366l-.68-.449.257-4.373h5.169v.936h-4.284l-.192 2.873c.265-.12.532-.216.801-.289.27-.073.592-.109.968-.109.437 0 .843.062 1.219.186.376.124.705.304.987.539.283.235.503.523.66.865.159.342.238.727.238 1.155 0 .461-.079.861-.237 1.224a2.757 2.757 0 0 1-.66.937 2.93 2.93 0 0 1-1.014.602 3.812 3.812 0 0 1-1.295.212 3.941 3.941 0 0 1-1.776-.404z" fill="#222" fill-rule="evenodd"/></symbol></svg>